<?xml version="1.0" encoding="UTF-8" standalone="no"?><!-- Generator: Gravit.io --><svg xmlns="http://www.w3.org/2000/svg" xmlns:xlink="http://www.w3.org/1999/xlink" style="isolation:isolate" viewBox="0 0 1024 1024" width="1024pt" height="1024pt"><defs><clipPath id="_clipPath_mJ3orLhq2Hvtxb14UKoXvetRaC0Yhwkr"><rect width="1024" height="1024"/></clipPath></defs><g clip-path="url(#_clipPath_mJ3orLhq2Hvtxb14UKoXvetRaC0Yhwkr)"><g style="isolation:isolate"><path d="M 95.35 41 L 928.65 41 C 936.846 41 943.5 47.654 943.5 55.85 L 943.5 224.15 C 943.5 232.346 936.846 239 928.65 239 L 95.35 239 C 87.154 239 80.5 232.346 80.5 224.15 L 80.5 55.85 C 80.5 47.654 87.154 41 95.35 41 Z" style="stroke:none;fill:#EBEBEB;stroke-miterlimit:10;"/><path d="M 95.35 289 L 928.65 289 C 936.846 289 943.5 295.654 943.5 303.85 L 943.5 472.15 C 943.5 480.346 936.846 487 928.65 487 L 95.35 487 C 87.154 487 80.5 480.346 80.5 472.15 L 80.5 303.85 C 80.5 295.654 87.154 289 95.35 289 Z" style="stroke:none;fill:#EBEBEB;stroke-miterlimit:10;"/><path d="M 95.35 537 L 928.65 537 C 936.846 537 943.5 543.654 943.5 551.85 L 943.5 720.15 C 943.5 728.346 936.846 735 928.65 735 L 95.35 735 C 87.154 735 80.5 728.346 80.5 720.15 L 80.5 551.85 C 80.5 543.654 87.154 537 95.35 537 Z" style="stroke:none;fill:#EBEBEB;stroke-miterlimit:10;"/><path d="M 95.35 785 L 928.65 785 C 936.846 785 943.5 791.654 943.5 799.85 L 943.5 968.15 C 943.5 976.346 936.846 983 928.65 983 L 95.35 983 C 87.154 983 80.5 976.346 80.5 968.15 L 80.5 799.85 C 80.5 791.654 87.154 785 95.35 785 Z" style="stroke:none;fill:#EBEBEB;stroke-miterlimit:10;"/></g></g></svg>