<?xml version="1.0" encoding="UTF-8" standalone="no"?><!-- Generator: Gravit.io --><svg xmlns="http://www.w3.org/2000/svg" xmlns:xlink="http://www.w3.org/1999/xlink" style="isolation:isolate" viewBox="0 0 1024 1024" width="1024pt" height="1024pt"><defs><clipPath id="_clipPath_luPcBOOcRYJkn9zPTWRnpwVPbc900LBQ"><rect width="1024" height="1024"/></clipPath></defs><g clip-path="url(#_clipPath_luPcBOOcRYJkn9zPTWRnpwVPbc900LBQ)"><g style="isolation:isolate"><path d="M 0 682.67 L 1024 682.67 L 1024 844.002 C 1024 943.345 943.345 1024 844 1024 L 180 1024 C 80.655 1024 0 943.345 0 844.002 L 0 682.67 Z" style="stroke:none;fill:#EEEEEE;stroke-miterlimit:10;"/><rect x="0" y="341.333" width="1024" height="341.333" transform="matrix(1,0,0,1,0,0)" fill="rgb(255,213,79)"/><path d="M 180 0 L 844 0 C 943.345 0 1024 80.655 1024 179.998 L 1024 341.33 L 0 341.33 L 0 179.998 C 0 80.655 80.655 0 180 0 Z" style="stroke:none;fill:#EF5350;stroke-miterlimit:10;"/></g><g style="isolation:isolate"><defs><filter id="Cv5KUD5KH98ZJlGgNEeYgWMRVh2Vbwqk" x="-200%" y="-200%" width="400%" height="400%" filterUnits="objectBoundingBox" color-interpolation-filters="sRGB"><feGaussianBlur xmlns="http://www.w3.org/2000/svg" in="SourceGraphic" stdDeviation="42.93609062839028"/><feOffset xmlns="http://www.w3.org/2000/svg" dx="0" dy="30" result="pf_100_offsetBlur"/><feFlood xmlns="http://www.w3.org/2000/svg" flood-color="#000000" flood-opacity="0.25"/><feComposite xmlns="http://www.w3.org/2000/svg" in2="pf_100_offsetBlur" operator="in" result="pf_100_dropShadow"/><feBlend xmlns="http://www.w3.org/2000/svg" in="SourceGraphic" in2="pf_100_dropShadow" mode="normal"/></filter></defs><g filter="url(#Cv5KUD5KH98ZJlGgNEeYgWMRVh2Vbwqk)"><g clip-path="url(#_clipPath_GnqMqSNvBoyFxYrREChn7tH7pS9jhIX6)"><text transform="matrix(1,0,0,1,118,757.021)" style="font-family:'Sarina';font-weight:400;font-size:789px;font-style:normal;fill:#000000;stroke:none;">R</text></g><defs><clipPath id="_clipPath_GnqMqSNvBoyFxYrREChn7tH7pS9jhIX6"><rect x="0" y="0" width="788" height="986.25" transform="matrix(1,0,0,1,118,18.875)"/></clipPath></defs></g></g></g></svg>