<?xml version="1.0" encoding="UTF-8" standalone="no"?><!-- Generator: Gravit.io --><svg xmlns="http://www.w3.org/2000/svg" xmlns:xlink="http://www.w3.org/1999/xlink" style="isolation:isolate" viewBox="0 0 1024 1024" width="1024pt" height="1024pt"><defs><clipPath id="_clipPath_dJDOWJNYYglfS5of3y2UwKuvmhJzSMJ1"><rect width="1024" height="1024"/></clipPath></defs><g clip-path="url(#_clipPath_dJDOWJNYYglfS5of3y2UwKuvmhJzSMJ1)"><g style="isolation:isolate"><rect x="0" y="682.667" width="1024" height="341.333" transform="matrix(1,0,0,1,0,0)" fill="rgb(238,238,238)"/><rect x="0" y="341.333" width="1024" height="341.333" transform="matrix(1,0,0,1,0,0)" fill="rgb(255,213,79)"/><rect x="0" y="0" width="1024" height="341.333" transform="matrix(1,0,0,1,0,0)" fill="rgb(239,83,80)"/></g><g style="isolation:isolate"><defs><filter id="rgMur8i5YgdcfotMrVWDoFp908KawooZ" x="-200%" y="-200%" width="400%" height="400%" filterUnits="objectBoundingBox" color-interpolation-filters="sRGB"><feGaussianBlur xmlns="http://www.w3.org/2000/svg" in="SourceGraphic" stdDeviation="42.93609062839028"/><feOffset xmlns="http://www.w3.org/2000/svg" dx="0" dy="30" result="pf_100_offsetBlur"/><feFlood xmlns="http://www.w3.org/2000/svg" flood-color="#000000" flood-opacity="0.3"/><feComposite xmlns="http://www.w3.org/2000/svg" in2="pf_100_offsetBlur" operator="in" result="pf_100_dropShadow"/><feBlend xmlns="http://www.w3.org/2000/svg" in="SourceGraphic" in2="pf_100_dropShadow" mode="normal"/></filter></defs><g filter="url(#rgMur8i5YgdcfotMrVWDoFp908KawooZ)"><mask id="_mask_nyaPxcjxg5iurYnbiNhyBt8vOKEXjDJf" x="-200%" y="-200%" width="400%" height="400%"><rect x="-200%" y="-200%" width="400%" height="400%" style="fill:white;"/><path d=" M 390.638 585.923 L 390.638 585.923 L 390.638 585.923 Q 406.385 585.923 413.716 597.167 L 413.716 597.167 L 413.716 597.167 Q 421.046 608.411 421.046 622.766 L 421.046 622.766 L 421.046 622.766 Q 421.046 629.943 419.417 635.206 L 419.417 635.206 L 419.417 635.206 Q 417.788 640.469 412.901 645.014 L 412.901 645.014 L 412.901 645.014 Q 408.014 649.56 399.869 653.627 L 399.869 653.627 L 399.869 653.627 Q 391.724 657.694 378.692 662.478 L 378.692 662.478 L 378.692 662.478 Q 348.284 673.962 330.907 689.99 L 330.907 689.99 L 330.907 689.99 Q 313.531 706.019 313.531 721.809 L 313.531 721.809 L 313.531 721.809 Q 313.531 731.856 321.133 740.947 L 321.133 740.947 L 321.133 740.947 Q 328.735 750.038 345.026 756.976 L 345.026 756.976 L 345.026 756.976 Q 361.316 763.914 387.109 767.981 L 387.109 767.981 L 387.109 767.981 Q 412.901 772.048 449.283 772.048 L 449.283 772.048 L 449.283 772.048 Q 486.75 772.048 520.417 764.153 L 520.417 764.153 L 520.417 764.153 Q 554.083 756.258 579.333 741.904 L 579.333 741.904 L 579.333 741.904 Q 604.583 727.55 619.515 707.933 L 619.515 707.933 L 619.515 707.933 Q 634.448 688.316 634.448 665.349 L 634.448 665.349 L 634.448 665.349 Q 634.448 648.124 618.158 629.464 L 618.158 629.464 L 618.158 629.464 Q 601.868 610.804 566.572 590.708 L 566.572 590.708 L 566.572 590.708 Q 504.126 554.823 471.818 532.813 L 471.818 532.813 L 471.818 532.813 Q 439.509 510.804 431.907 505.062 L 431.907 505.062 L 431.907 505.062 Q 391.181 473.483 371.09 444.297 L 371.09 444.297 L 371.09 444.297 Q 350.999 415.11 350.999 383.531 L 350.999 383.531 L 350.999 383.531 Q 350.999 354.345 367.017 326.593 L 367.017 326.593 L 367.017 326.593 Q 383.036 298.842 410.186 274.44 L 410.186 274.44 L 410.186 274.44 Q 437.337 250.038 472.904 229.225 L 472.904 229.225 L 472.904 229.225 Q 508.47 208.411 547.295 193.579 L 547.295 193.579 L 547.295 193.579 Q 586.12 178.746 625.488 170.373 L 625.488 170.373 L 625.488 170.373 Q 664.856 162 700.152 162 L 700.152 162 L 700.152 162 Q 726.759 162 749.294 167.263 L 749.294 167.263 L 749.294 167.263 Q 771.828 172.526 788.662 183.77 L 788.662 183.77 L 788.662 183.77 Q 805.495 195.014 814.997 212.718 L 814.997 212.718 L 814.997 212.718 Q 824.5 230.421 824.5 255.301 L 824.5 255.301 L 824.5 255.301 Q 824.5 291.187 801.151 323.722 L 801.151 323.722 L 801.151 323.722 Q 777.801 356.258 730.017 384.488 L 730.017 384.488 L 730.017 384.488 Q 708.84 397.407 690.921 397.407 L 690.921 397.407 L 690.921 397.407 Q 672.458 397.407 661.598 385.684 L 661.598 385.684 L 661.598 385.684 Q 650.738 373.962 650.738 358.172 L 650.738 358.172 L 650.738 358.172 Q 650.738 344.775 659.698 331.378 L 659.698 331.378 L 659.698 331.378 Q 668.657 317.981 688.749 308.411 L 688.749 308.411 L 688.749 308.411 Q 704.496 301.234 716.713 289.034 L 716.713 289.034 L 716.713 289.034 Q 728.931 276.833 728.931 265.349 L 728.931 265.349 L 728.931 265.349 Q 728.931 254.344 720.514 250.995 L 720.514 250.995 L 720.514 250.995 Q 712.098 247.646 700.152 247.646 L 700.152 247.646 L 700.152 247.646 Q 677.345 247.646 650.467 252.67 L 650.467 252.67 L 650.467 252.67 Q 623.588 257.694 596.709 266.306 L 596.709 266.306 L 596.709 266.306 Q 569.83 274.919 544.58 286.88 L 544.58 286.88 L 544.58 286.88 Q 519.331 298.842 500.054 312.718 L 500.054 312.718 L 500.054 312.718 Q 480.777 326.593 469.103 342.144 L 469.103 342.144 L 469.103 342.144 Q 457.428 357.694 457.428 373.005 L 457.428 373.005 L 457.428 373.005 Q 457.428 383.531 462.315 392.622 L 462.315 392.622 L 462.315 392.622 Q 467.202 401.713 476.705 410.804 L 476.705 410.804 L 476.705 410.804 Q 486.207 419.895 499.782 429.703 L 499.782 429.703 L 499.782 429.703 Q 513.358 439.512 531.277 450.995 L 531.277 450.995 L 658.34 533.77 L 658.34 533.77 Q 682.775 549.56 702.052 564.632 L 702.052 564.632 L 702.052 564.632 Q 721.329 579.703 734.361 594.775 L 734.361 594.775 L 734.361 594.775 Q 747.393 609.847 754.452 625.158 L 754.452 625.158 L 754.452 625.158 Q 761.511 640.469 761.511 657.694 L 761.511 657.694 L 761.511 657.694 Q 761.511 695.971 738.977 732.574 L 738.977 732.574 L 738.977 732.574 Q 716.442 769.177 674.902 797.885 L 674.902 797.885 L 674.902 797.885 Q 633.362 826.593 574.989 844.297 L 574.989 844.297 L 574.989 844.297 Q 516.616 862 445.482 862 L 445.482 862 L 445.482 862 Q 379.235 862 332.808 852.67 L 332.808 852.67 L 332.808 852.67 Q 286.381 843.34 256.516 827.311 L 256.516 827.311 L 256.516 827.311 Q 226.65 811.282 213.075 790.469 L 213.075 790.469 L 213.075 790.469 Q 199.5 769.656 199.5 746.689 L 199.5 746.689 L 199.5 746.689 Q 199.5 722.766 213.347 698.124 L 213.347 698.124 L 213.347 698.124 Q 227.193 673.483 252.443 651.474 L 252.443 651.474 L 252.443 651.474 Q 277.693 629.464 312.988 612.239 L 312.988 612.239 L 312.988 612.239 Q 348.284 595.014 390.638 585.923 Z " fill="black" stroke="none"/></mask><path d=" M 390.638 585.923 L 390.638 585.923 L 390.638 585.923 Q 406.385 585.923 413.716 597.167 L 413.716 597.167 L 413.716 597.167 Q 421.046 608.411 421.046 622.766 L 421.046 622.766 L 421.046 622.766 Q 421.046 629.943 419.417 635.206 L 419.417 635.206 L 419.417 635.206 Q 417.788 640.469 412.901 645.014 L 412.901 645.014 L 412.901 645.014 Q 408.014 649.56 399.869 653.627 L 399.869 653.627 L 399.869 653.627 Q 391.724 657.694 378.692 662.478 L 378.692 662.478 L 378.692 662.478 Q 348.284 673.962 330.907 689.99 L 330.907 689.99 L 330.907 689.99 Q 313.531 706.019 313.531 721.809 L 313.531 721.809 L 313.531 721.809 Q 313.531 731.856 321.133 740.947 L 321.133 740.947 L 321.133 740.947 Q 328.735 750.038 345.026 756.976 L 345.026 756.976 L 345.026 756.976 Q 361.316 763.914 387.109 767.981 L 387.109 767.981 L 387.109 767.981 Q 412.901 772.048 449.283 772.048 L 449.283 772.048 L 449.283 772.048 Q 486.75 772.048 520.417 764.153 L 520.417 764.153 L 520.417 764.153 Q 554.083 756.258 579.333 741.904 L 579.333 741.904 L 579.333 741.904 Q 604.583 727.55 619.515 707.933 L 619.515 707.933 L 619.515 707.933 Q 634.448 688.316 634.448 665.349 L 634.448 665.349 L 634.448 665.349 Q 634.448 648.124 618.158 629.464 L 618.158 629.464 L 618.158 629.464 Q 601.868 610.804 566.572 590.708 L 566.572 590.708 L 566.572 590.708 Q 504.126 554.823 471.818 532.813 L 471.818 532.813 L 471.818 532.813 Q 439.509 510.804 431.907 505.062 L 431.907 505.062 L 431.907 505.062 Q 391.181 473.483 371.09 444.297 L 371.09 444.297 L 371.09 444.297 Q 350.999 415.11 350.999 383.531 L 350.999 383.531 L 350.999 383.531 Q 350.999 354.345 367.017 326.593 L 367.017 326.593 L 367.017 326.593 Q 383.036 298.842 410.186 274.44 L 410.186 274.44 L 410.186 274.44 Q 437.337 250.038 472.904 229.225 L 472.904 229.225 L 472.904 229.225 Q 508.47 208.411 547.295 193.579 L 547.295 193.579 L 547.295 193.579 Q 586.12 178.746 625.488 170.373 L 625.488 170.373 L 625.488 170.373 Q 664.856 162 700.152 162 L 700.152 162 L 700.152 162 Q 726.759 162 749.294 167.263 L 749.294 167.263 L 749.294 167.263 Q 771.828 172.526 788.662 183.77 L 788.662 183.77 L 788.662 183.77 Q 805.495 195.014 814.997 212.718 L 814.997 212.718 L 814.997 212.718 Q 824.5 230.421 824.5 255.301 L 824.5 255.301 L 824.5 255.301 Q 824.5 291.187 801.151 323.722 L 801.151 323.722 L 801.151 323.722 Q 777.801 356.258 730.017 384.488 L 730.017 384.488 L 730.017 384.488 Q 708.84 397.407 690.921 397.407 L 690.921 397.407 L 690.921 397.407 Q 672.458 397.407 661.598 385.684 L 661.598 385.684 L 661.598 385.684 Q 650.738 373.962 650.738 358.172 L 650.738 358.172 L 650.738 358.172 Q 650.738 344.775 659.698 331.378 L 659.698 331.378 L 659.698 331.378 Q 668.657 317.981 688.749 308.411 L 688.749 308.411 L 688.749 308.411 Q 704.496 301.234 716.713 289.034 L 716.713 289.034 L 716.713 289.034 Q 728.931 276.833 728.931 265.349 L 728.931 265.349 L 728.931 265.349 Q 728.931 254.344 720.514 250.995 L 720.514 250.995 L 720.514 250.995 Q 712.098 247.646 700.152 247.646 L 700.152 247.646 L 700.152 247.646 Q 677.345 247.646 650.467 252.67 L 650.467 252.67 L 650.467 252.67 Q 623.588 257.694 596.709 266.306 L 596.709 266.306 L 596.709 266.306 Q 569.83 274.919 544.58 286.88 L 544.58 286.88 L 544.58 286.88 Q 519.331 298.842 500.054 312.718 L 500.054 312.718 L 500.054 312.718 Q 480.777 326.593 469.103 342.144 L 469.103 342.144 L 469.103 342.144 Q 457.428 357.694 457.428 373.005 L 457.428 373.005 L 457.428 373.005 Q 457.428 383.531 462.315 392.622 L 462.315 392.622 L 462.315 392.622 Q 467.202 401.713 476.705 410.804 L 476.705 410.804 L 476.705 410.804 Q 486.207 419.895 499.782 429.703 L 499.782 429.703 L 499.782 429.703 Q 513.358 439.512 531.277 450.995 L 531.277 450.995 L 658.34 533.77 L 658.34 533.77 Q 682.775 549.56 702.052 564.632 L 702.052 564.632 L 702.052 564.632 Q 721.329 579.703 734.361 594.775 L 734.361 594.775 L 734.361 594.775 Q 747.393 609.847 754.452 625.158 L 754.452 625.158 L 754.452 625.158 Q 761.511 640.469 761.511 657.694 L 761.511 657.694 L 761.511 657.694 Q 761.511 695.971 738.977 732.574 L 738.977 732.574 L 738.977 732.574 Q 716.442 769.177 674.902 797.885 L 674.902 797.885 L 674.902 797.885 Q 633.362 826.593 574.989 844.297 L 574.989 844.297 L 574.989 844.297 Q 516.616 862 445.482 862 L 445.482 862 L 445.482 862 Q 379.235 862 332.808 852.67 L 332.808 852.67 L 332.808 852.67 Q 286.381 843.34 256.516 827.311 L 256.516 827.311 L 256.516 827.311 Q 226.65 811.282 213.075 790.469 L 213.075 790.469 L 213.075 790.469 Q 199.5 769.656 199.5 746.689 L 199.5 746.689 L 199.5 746.689 Q 199.5 722.766 213.347 698.124 L 213.347 698.124 L 213.347 698.124 Q 227.193 673.483 252.443 651.474 L 252.443 651.474 L 252.443 651.474 Q 277.693 629.464 312.988 612.239 L 312.988 612.239 L 312.988 612.239 Q 348.284 595.014 390.638 585.923 Z " fill="rgb(0,0,0)"/><path d=" M 390.638 585.923 L 390.638 585.923 L 390.638 585.923 Q 406.385 585.923 413.716 597.167 L 413.716 597.167 L 413.716 597.167 Q 421.046 608.411 421.046 622.766 L 421.046 622.766 L 421.046 622.766 Q 421.046 629.943 419.417 635.206 L 419.417 635.206 L 419.417 635.206 Q 417.788 640.469 412.901 645.014 L 412.901 645.014 L 412.901 645.014 Q 408.014 649.56 399.869 653.627 L 399.869 653.627 L 399.869 653.627 Q 391.724 657.694 378.692 662.478 L 378.692 662.478 L 378.692 662.478 Q 348.284 673.962 330.907 689.99 L 330.907 689.99 L 330.907 689.99 Q 313.531 706.019 313.531 721.809 L 313.531 721.809 L 313.531 721.809 Q 313.531 731.856 321.133 740.947 L 321.133 740.947 L 321.133 740.947 Q 328.735 750.038 345.026 756.976 L 345.026 756.976 L 345.026 756.976 Q 361.316 763.914 387.109 767.981 L 387.109 767.981 L 387.109 767.981 Q 412.901 772.048 449.283 772.048 L 449.283 772.048 L 449.283 772.048 Q 486.75 772.048 520.417 764.153 L 520.417 764.153 L 520.417 764.153 Q 554.083 756.258 579.333 741.904 L 579.333 741.904 L 579.333 741.904 Q 604.583 727.55 619.515 707.933 L 619.515 707.933 L 619.515 707.933 Q 634.448 688.316 634.448 665.349 L 634.448 665.349 L 634.448 665.349 Q 634.448 648.124 618.158 629.464 L 618.158 629.464 L 618.158 629.464 Q 601.868 610.804 566.572 590.708 L 566.572 590.708 L 566.572 590.708 Q 504.126 554.823 471.818 532.813 L 471.818 532.813 L 471.818 532.813 Q 439.509 510.804 431.907 505.062 L 431.907 505.062 L 431.907 505.062 Q 391.181 473.483 371.09 444.297 L 371.09 444.297 L 371.09 444.297 Q 350.999 415.11 350.999 383.531 L 350.999 383.531 L 350.999 383.531 Q 350.999 354.345 367.017 326.593 L 367.017 326.593 L 367.017 326.593 Q 383.036 298.842 410.186 274.44 L 410.186 274.44 L 410.186 274.44 Q 437.337 250.038 472.904 229.225 L 472.904 229.225 L 472.904 229.225 Q 508.47 208.411 547.295 193.579 L 547.295 193.579 L 547.295 193.579 Q 586.12 178.746 625.488 170.373 L 625.488 170.373 L 625.488 170.373 Q 664.856 162 700.152 162 L 700.152 162 L 700.152 162 Q 726.759 162 749.294 167.263 L 749.294 167.263 L 749.294 167.263 Q 771.828 172.526 788.662 183.77 L 788.662 183.77 L 788.662 183.77 Q 805.495 195.014 814.997 212.718 L 814.997 212.718 L 814.997 212.718 Q 824.5 230.421 824.5 255.301 L 824.5 255.301 L 824.5 255.301 Q 824.5 291.187 801.151 323.722 L 801.151 323.722 L 801.151 323.722 Q 777.801 356.258 730.017 384.488 L 730.017 384.488 L 730.017 384.488 Q 708.84 397.407 690.921 397.407 L 690.921 397.407 L 690.921 397.407 Q 672.458 397.407 661.598 385.684 L 661.598 385.684 L 661.598 385.684 Q 650.738 373.962 650.738 358.172 L 650.738 358.172 L 650.738 358.172 Q 650.738 344.775 659.698 331.378 L 659.698 331.378 L 659.698 331.378 Q 668.657 317.981 688.749 308.411 L 688.749 308.411 L 688.749 308.411 Q 704.496 301.234 716.713 289.034 L 716.713 289.034 L 716.713 289.034 Q 728.931 276.833 728.931 265.349 L 728.931 265.349 L 728.931 265.349 Q 728.931 254.344 720.514 250.995 L 720.514 250.995 L 720.514 250.995 Q 712.098 247.646 700.152 247.646 L 700.152 247.646 L 700.152 247.646 Q 677.345 247.646 650.467 252.67 L 650.467 252.67 L 650.467 252.67 Q 623.588 257.694 596.709 266.306 L 596.709 266.306 L 596.709 266.306 Q 569.83 274.919 544.58 286.88 L 544.58 286.88 L 544.58 286.88 Q 519.331 298.842 500.054 312.718 L 500.054 312.718 L 500.054 312.718 Q 480.777 326.593 469.103 342.144 L 469.103 342.144 L 469.103 342.144 Q 457.428 357.694 457.428 373.005 L 457.428 373.005 L 457.428 373.005 Q 457.428 383.531 462.315 392.622 L 462.315 392.622 L 462.315 392.622 Q 467.202 401.713 476.705 410.804 L 476.705 410.804 L 476.705 410.804 Q 486.207 419.895 499.782 429.703 L 499.782 429.703 L 499.782 429.703 Q 513.358 439.512 531.277 450.995 L 531.277 450.995 L 658.34 533.77 L 658.34 533.77 Q 682.775 549.56 702.052 564.632 L 702.052 564.632 L 702.052 564.632 Q 721.329 579.703 734.361 594.775 L 734.361 594.775 L 734.361 594.775 Q 747.393 609.847 754.452 625.158 L 754.452 625.158 L 754.452 625.158 Q 761.511 640.469 761.511 657.694 L 761.511 657.694 L 761.511 657.694 Q 761.511 695.971 738.977 732.574 L 738.977 732.574 L 738.977 732.574 Q 716.442 769.177 674.902 797.885 L 674.902 797.885 L 674.902 797.885 Q 633.362 826.593 574.989 844.297 L 574.989 844.297 L 574.989 844.297 Q 516.616 862 445.482 862 L 445.482 862 L 445.482 862 Q 379.235 862 332.808 852.67 L 332.808 852.67 L 332.808 852.67 Q 286.381 843.34 256.516 827.311 L 256.516 827.311 L 256.516 827.311 Q 226.65 811.282 213.075 790.469 L 213.075 790.469 L 213.075 790.469 Q 199.5 769.656 199.5 746.689 L 199.5 746.689 L 199.5 746.689 Q 199.5 722.766 213.347 698.124 L 213.347 698.124 L 213.347 698.124 Q 227.193 673.483 252.443 651.474 L 252.443 651.474 L 252.443 651.474 Q 277.693 629.464 312.988 612.239 L 312.988 612.239 L 312.988 612.239 Q 348.284 595.014 390.638 585.923 Z " fill="rgb(0,0,0)" mask="url(#_mask_nyaPxcjxg5iurYnbiNhyBt8vOKEXjDJf)" vector-effect="non-scaling-stroke" stroke-width="20" stroke="rgb(0,0,0)" stroke-linejoin="miter" stroke-linecap="square" stroke-miterlimit="3"/></g></g></g></svg>